<?xml version="1.0" encoding="utf-8"?>
<svg version="1.1" xmlns="http://www.w3.org/2000/svg" xmlns:xlink="http://www.w3.org/1999/xlink">

<!-- Outline -->

<svg id='outline/academic-cap' fill="none" viewBox="0 0 24 24" stroke="currentColor" stroke-width="2">
  <path d="M12 14l9-5-9-5-9 5 9 5z" />
  <path d="M12 14l6.16-3.422a12.083 12.083 0 01.665 6.479A11.952 11.952 0 0012 20.055a11.952 11.952 0 00-6.824-2.998 12.078 12.078 0 01.665-6.479L12 14z" />
  <path stroke-linecap="round" stroke-linejoin="round" d="M12 14l9-5-9-5-9 5 9 5zm0 0l6.16-3.422a12.083 12.083 0 01.665 6.479A11.952 11.952 0 0012 20.055a11.952 11.952 0 00-6.824-2.998 12.078 12.078 0 01.665-6.479L12 14zm-4 6v-7.5l4-2.222" />
</svg>

<svg id='outline/bell' fill="none" viewBox="0 0 24 24" stroke="currentColor">
  <path stroke-linecap="round" stroke-linejoin="round" stroke-width="2" d="M15 17h5l-1.405-1.405A2.032 2.032 0 0118 14.158V11a6.002 6.002 0 00-4-5.659V5a2 2 0 10-4 0v.341C7.67 6.165 6 8.388 6 11v3.159c0 .538-.214 1.055-.595 1.436L4 17h5m6 0v1a3 3 0 11-6 0v-1m6 0H9" />
</svg>

<svg id="outline/calendar" fill="none" viewBox="0 0 24 24" stroke="currentColor" stroke-width="2">
  <path stroke-linecap="round" stroke-linejoin="round" d="M8 7V3m8 4V3m-9 8h10M5 21h14a2 2 0 002-2V7a2 2 0 00-2-2H5a2 2 0 00-2 2v12a2 2 0 002 2z" />
</svg>

<svg id='outline/chevron-double-down' fill="none" viewBox="0 0 24 24" stroke="currentColor">
  <path stroke-linecap="round" stroke-linejoin="round" stroke-width="2" d="M19 13l-7 7-7-7m14-8l-7 7-7-7" />
</svg>

<svg id='outline/chevron-double-left' viewBox="0 0 20 20" fill="currentColor">
  <path fill-rule="evenodd" d="M15.707 15.707a1 1 0 01-1.414 0l-5-5a1 1 0 010-1.414l5-5a1 1 0 111.414 1.414L11.414 10l4.293 4.293a1 1 0 010 1.414zm-6 0a1 1 0 01-1.414 0l-5-5a1 1 0 010-1.414l5-5a1 1 0 011.414 1.414L5.414 10l4.293 4.293a1 1 0 010 1.414z" clip-rule="evenodd" />
</svg>

<svg id='outline/chevron-double-right' viewBox="0 0 20 20" fill="currentColor">
  <path fill-rule="evenodd" d="M10.293 15.707a1 1 0 010-1.414L14.586 10l-4.293-4.293a1 1 0 111.414-1.414l5 5a1 1 0 010 1.414l-5 5a1 1 0 01-1.414 0z" clip-rule="evenodd" />
  <path fill-rule="evenodd" d="M4.293 15.707a1 1 0 010-1.414L8.586 10 4.293 5.707a1 1 0 011.414-1.414l5 5a1 1 0 010 1.414l-5 5a1 1 0 01-1.414 0z" clip-rule="evenodd" />
</svg>

<svg id='outline/chevron-double-up' fill="none" viewBox="0 0 24 24" stroke="currentColor">
  <path stroke-linecap="round" stroke-linejoin="round" stroke-width="2" d="M5 11l7-7 7 7M5 19l7-7 7 7" />
</svg>

<svg id='outline/clipboard-list' fill="none" viewBox="0 0 24 24" stroke="currentColor">
  <path stroke-linecap="round" stroke-linejoin="round" stroke-width="2" d="M9 5H7a2 2 0 00-2 2v12a2 2 0 002 2h10a2 2 0 002-2V7a2 2 0 00-2-2h-2M9 5a2 2 0 002 2h2a2 2 0 002-2M9 5a2 2 0 012-2h2a2 2 0 012 2m-3 7h3m-3 4h3m-6-4h.01M9 16h.01" />
</svg>

<svg id='outline/cube' fill="none" viewBox="0 0 24 24" stroke="currentColor">
  <path stroke-linecap="round" stroke-linejoin="round" stroke-width="2" d="M20 7l-8-4-8 4m16 0l-8 4m8-4v10l-8 4m0-10L4 7m8 4v10M4 7v10l8 4" />
</svg>

<svg id="outline/document-text" fill="none" viewBox="0 0 24 24" stroke="currentColor" stroke-width="2">
  <path stroke-linecap="round" stroke-linejoin="round" d="M9 12h6m-6 4h6m2 5H7a2 2 0 01-2-2V5a2 2 0 012-2h5.586a1 1 0 01.707.293l5.414 5.414a1 1 0 01.293.707V19a2 2 0 01-2 2z" />
</svg>

<svg id='outline/eye' fill="none" viewBox="0 0 24 24" stroke="currentColor">
  <path stroke-linecap="round" stroke-linejoin="round" stroke-width="2" d="M15 12a3 3 0 11-6 0 3 3 0 016 0z" />
  <path stroke-linecap="round" stroke-linejoin="round" stroke-width="2" d="M2.458 12C3.732 7.943 7.523 5 12 5c4.478 0 8.268 2.943 9.542 7-1.274 4.057-5.064 7-9.542 7-4.477 0-8.268-2.943-9.542-7z" />
</svg>

<svg id='outline/identification' fill="none" viewBox="0 0 24 24" stroke="currentColor">
  <path stroke-linecap="round" stroke-linejoin="round" stroke-width="2" d="M10 6H5a2 2 0 00-2 2v9a2 2 0 002 2h14a2 2 0 002-2V8a2 2 0 00-2-2h-5m-4 0V5a2 2 0 114 0v1m-4 0a2 2 0 104 0m-5 8a2 2 0 100-4 2 2 0 000 4zm0 0c1.306 0 2.417.835 2.83 2M9 14a3.001 3.001 0 00-2.83 2M15 11h3m-3 4h2" />
</svg>

<svg id='outline/key' fill="none" viewBox="0 0 24 24" stroke="currentColor">
  <path stroke-linecap="round" stroke-linejoin="round" stroke-width="2" d="M15 7a2 2 0 012 2m4 0a6 6 0 01-7.743 5.743L11 17H9v2H7v2H4a1 1 0 01-1-1v-2.586a1 1 0 01.293-.707l5.964-5.964A6 6 0 1121 9z" />
</svg>

<svg id="outline/login" fill="none" viewBox="0 0 24 24" stroke="currentColor">
  <path stroke-linecap="round" stroke-linejoin="round" stroke-width="2" d="M11 16l-4-4m0 0l4-4m-4 4h14m-5 4v1a3 3 0 01-3 3H6a3 3 0 01-3-3V7a3 3 0 013-3h7a3 3 0 013 3v1" />
</svg>

<svg id='outline/logout' fill="none" viewBox="0 0 24 24" stroke="currentColor">
  <path stroke-linecap="round" stroke-linejoin="round" stroke-width="2" d="M17 16l4-4m0 0l-4-4m4 4H7m6 4v1a3 3 0 01-3 3H6a3 3 0 01-3-3V7a3 3 0 013-3h4a3 3 0 013 3v1" />
</svg>

<svg id="outline/minus-sm" viewBox="0 0 20 20" fill="currentColor">
  <path fill-rule="evenodd" d="M5 10a1 1 0 011-1h8a1 1 0 110 2H6a1 1 0 01-1-1z" clip-rule="evenodd" />
</svg>

<svg id="outline/menu" fill="none" viewBox="0 0 24 24" stroke="currentColor">
  <path stroke-linecap="round" stroke-linejoin="round" stroke-width="2" d="M4 6h16M4 12h16M4 18h16" />
</svg>

<svg id='outline/menu-alt-2' fill="none" viewBox="0 0 24 24" stroke="currentColor">
  <path stroke-linecap="round" stroke-linejoin="round" stroke-width="2" d="M4 6h16M4 12h16M4 18h7" />
</svg>

<svg id="outline/plus-sm" fill="none" viewBox="0 0 24 24" stroke="currentColor">
  <path stroke-linecap="round" stroke-linejoin="round" stroke-width="2" d="M12 6v6m0 0v6m0-6h6m-6 0H6" />
</svg>

<svg id="outline/select" viewBox="0 0 20 20" stroke="currentColor" fill="none">
  <g fill-rule="evenodd" stroke-linecap="round" stroke-linejoin="round">
    <path d="M18 3v4c0 2-2 4-4 4H2"></path>
    <path d="M8 17l-6-6 6-6"></path>
  </g>
</svg>

<svg id="outline/star" fill="none" viewBox="0 0 24 24" stroke="currentColor">
  <path stroke-linecap="round" stroke-linejoin="round" stroke-width="2" d="M11.049 2.927c.3-.921 1.603-.921 1.902 0l1.519 4.674a1 1 0 00.95.69h4.915c.969 0 1.371 1.24.588 1.81l-3.976 2.888a1 1 0 00-.363 1.118l1.518 4.674c.3.922-.755 1.688-1.538 1.118l-3.976-2.888a1 1 0 00-1.176 0l-3.976 2.888c-.783.57-1.838-.197-1.538-1.118l1.518-4.674a1 1 0 00-.363-1.118l-3.976-2.888c-.784-.57-.38-1.81.588-1.81h4.914a1 1 0 00.951-.69l1.519-4.674z" />
</svg>

<svg id='outline/trash' fill="none" viewBox="0 0 24 24" stroke="currentColor">
  <path stroke-linecap="round" stroke-linejoin="round" stroke-width="2" d="M19 7l-.867 12.142A2 2 0 0116.138 21H7.862a2 2 0 01-1.995-1.858L5 7m5 4v6m4-6v6m1-10V4a1 1 0 00-1-1h-4a1 1 0 00-1 1v3M4 7h16" />
</svg>

<svg id="outline/user" fill="none" viewBox="0 0 24 24" stroke="currentColor">
  <path stroke-linecap="round" stroke-linejoin="round" stroke-width="2" d="M16 7a4 4 0 11-8 0 4 4 0 018 0zM12 14a7 7 0 00-7 7h14a7 7 0 00-7-7z" />
</svg>

<svg id='outline/user-circle' fill="none" viewBox="0 0 24 24" stroke="currentColor">
  <path stroke-linecap="round" stroke-linejoin="round" stroke-width="2" d="M5.121 17.804A13.937 13.937 0 0112 16c2.5 0 4.847.655 6.879 1.804M15 10a3 3 0 11-6 0 3 3 0 016 0zm6 2a9 9 0 11-18 0 9 9 0 0118 0z" />
</svg>

<svg id='outline/user-group' fill="none" viewBox="0 0 24 24" stroke="currentColor">
  <path stroke-linecap="round" stroke-linejoin="round" stroke-width="2" d="M17 20h5v-2a3 3 0 00-5.356-1.857M17 20H7m10 0v-2c0-.656-.126-1.283-.356-1.857M7 20H2v-2a3 3 0 015.356-1.857M7 20v-2c0-.656.126-1.283.356-1.857m0 0a5.002 5.002 0 019.288 0M15 7a3 3 0 11-6 0 3 3 0 016 0zm6 3a2 2 0 11-4 0 2 2 0 014 0zM7 10a2 2 0 11-4 0 2 2 0 014 0z" />
</svg>

<svg id='outline/x' fill="none" viewBox="0 0 24 24" stroke="currentColor">
  <path stroke-linecap="round" stroke-linejoin="round" stroke-width="2" d="M6 18L18 6M6 6l12 12" />
</svg>

<!-- Solid -->

<svg id='solid/check' viewBox="0 0 20 20" fill="currentColor">
  <path fill-rule="evenodd" d="M16.707 5.293a1 1 0 010 1.414l-8 8a1 1 0 01-1.414 0l-4-4a1 1 0 011.414-1.414L8 12.586l7.293-7.293a1 1 0 011.414 0z" clip-rule="evenodd" />
</svg>

<svg id='solid/check-circle' class="h-5 w-5" viewBox="0 0 20 20" fill="currentColor">
  <path fill-rule="evenodd" d="M10 18a8 8 0 100-16 8 8 0 000 16zm3.707-9.293a1 1 0 00-1.414-1.414L9 10.586 7.707 9.293a1 1 0 00-1.414 1.414l2 2a1 1 0 001.414 0l4-4z" clip-rule="evenodd" />
</svg>

<svg id='solid/chevron-down' viewBox="0 0 20 20" fill="currentColor">
  <path fill-rule="evenodd" d="M5.293 7.293a1 1 0 011.414 0L10 10.586l3.293-3.293a1 1 0 111.414 1.414l-4 4a1 1 0 01-1.414 0l-4-4a1 1 0 010-1.414z" clip-rule="evenodd" />
</svg>

<svg id='solid/chevron-right' viewBox="0 0 20 20" fill="currentColor" aria-hidden="true">
  <path fill-rule="evenodd" d="M7.293 14.707a1 1 0 010-1.414L10.586 10 7.293 6.707a1 1 0 011.414-1.414l4 4a1 1 0 010 1.414l-4 4a1 1 0 01-1.414 0z" clip-rule="evenodd" />
</svg>

<svg id='solid/exclamation' viewBox="0 0 20 20" fill="currentColor" aria-hidden="true">
  <path fill-rule="evenodd" d="M8.257 3.099c.765-1.36 2.722-1.36 3.486 0l5.58 9.92c.75 1.334-.213 2.98-1.742 2.98H4.42c-1.53 0-2.493-1.646-1.743-2.98l5.58-9.92zM11 13a1 1 0 11-2 0 1 1 0 012 0zm-1-8a1 1 0 00-1 1v3a1 1 0 002 0V6a1 1 0 00-1-1z" clip-rule="evenodd" />
</svg>

<svg id='solid/eye' viewBox="0 0 20 20" fill="currentColor">
  <path d="M10 12a2 2 0 100-4 2 2 0 000 4z" />
  <path fill-rule="evenodd" d="M.458 10C1.732 5.943 5.522 3 10 3s8.268 2.943 9.542 7c-1.274 4.057-5.064 7-9.542 7S1.732 14.057.458 10zM14 10a4 4 0 11-8 0 4 4 0 018 0z" clip-rule="evenodd" />
</svg>

<svg id="solid/information-circle" viewBox="0 0 20 20" fill="currentColor">
  <path fill-rule="evenodd" d="M18 10a8 8 0 11-16 0 8 8 0 0116 0zm-7-4a1 1 0 11-2 0 1 1 0 012 0zM9 9a1 1 0 000 2v3a1 1 0 001 1h1a1 1 0 100-2v-3a1 1 0 00-1-1H9z" clip-rule="evenodd" />
</svg>

<svg id="solid/pencil" viewBox="0 0 20 20" fill="currentColor">
  <path d="M13.586 3.586a2 2 0 112.828 2.828l-.793.793-2.828-2.828.793-.793zM11.379 5.793L3 14.172V17h2.828l8.38-8.379-2.83-2.828z" />
</svg>

<svg id="solid/plus" fill="none" viewBox="0 0 24 24" stroke="currentColor">
  <path stroke-linecap="round" stroke-linejoin="round" stroke-width="2" d="M12 6v6m0 0v6m0-6h6m-6 0H6" />
</svg>

<svg id="solid/search" viewBox="0 0 20 20" fill="currentColor">
  <path fill-rule="evenodd" d="M8 4a4 4 0 100 8 4 4 0 000-8zM2 8a6 6 0 1110.89 3.476l4.817 4.817a1 1 0 01-1.414 1.414l-4.816-4.816A6 6 0 012 8z" clip-rule="evenodd" />
</svg>

<svg id="solid/selector" viewBox="0 0 20 20" fill="currentColor">
  <path fill-rule="evenodd" d="M10 3a1 1 0 01.707.293l3 3a1 1 0 01-1.414 1.414L10 5.414 7.707 7.707a1 1 0 01-1.414-1.414l3-3A1 1 0 0110 3zm-3.707 9.293a1 1 0 011.414 0L10 14.586l2.293-2.293a1 1 0 011.414 1.414l-3 3a1 1 0 01-1.414 0l-3-3a1 1 0 010-1.414z" clip-rule="evenodd" />
</svg>

<svg id="solid/star"  viewBox="0 0 20 20" fill="currentColor">
  <path d="M9.049 2.927c.3-.921 1.603-.921 1.902 0l1.07 3.292a1 1 0 00.95.69h3.462c.969 0 1.371 1.24.588 1.81l-2.8 2.034a1 1 0 00-.364 1.118l1.07 3.292c.3.921-.755 1.688-1.54 1.118l-2.8-2.034a1 1 0 00-1.175 0l-2.8 2.034c-.784.57-1.838-.197-1.539-1.118l1.07-3.292a1 1 0 00-.364-1.118L2.98 8.72c-.783-.57-.38-1.81.588-1.81h3.461a1 1 0 00.951-.69l1.07-3.292z" />
</svg>

<svg id="solid/trash" fill="none" viewBox="0 0 24 24" stroke="currentColor">
  <path stroke-linecap="round" stroke-linejoin="round" stroke-width="2" d="M19 7l-.867 12.142A2 2 0 0116.138 21H7.862a2 2 0 01-1.995-1.858L5 7m5 4v6m4-6v6m1-10V4a1 1 0 00-1-1h-4a1 1 0 00-1 1v3M4 7h16" />
</svg>

<svg id="solid/user" viewBox="0 0 20 20" fill="currentColor">
  <path fill-rule="evenodd" d="M10 9a3 3 0 100-6 3 3 0 000 6zm-7 9a7 7 0 1114 0H3z" clip-rule="evenodd" />
</svg>

<svg id="solid/user-circle" viewBox="0 0 20 20" fill="currentColor">
  <path fill-rule="evenodd" d="M18 10a8 8 0 11-16 0 8 8 0 0116 0zm-6-3a2 2 0 11-4 0 2 2 0 014 0zm-2 4a5 5 0 00-4.546 2.916A5.986 5.986 0 0010 16a5.986 5.986 0 004.546-2.084A5 5 0 0010 11z" clip-rule="evenodd" />
</svg>

<svg id="solid/x" viewBox="0 0 20 20" fill="currentColor" aria-hidden="true">
  <path fill-rule="evenodd" d="M4.293 4.293a1 1 0 011.414 0L10 8.586l4.293-4.293a1 1 0 111.414 1.414L11.414 10l4.293 4.293a1 1 0 01-1.414 1.414L10 11.414l-4.293 4.293a1 1 0 01-1.414-1.414L8.586 10 4.293 5.707a1 1 0 010-1.414z" clip-rule="evenodd" />
</svg>

<svg id='solid/x-circle' viewBox="0 0 20 20" fill="currentColor">
  <path fill-rule="evenodd" d="M10 18a8 8 0 100-16 8 8 0 000 16zM8.707 7.293a1 1 0 00-1.414 1.414L8.586 10l-1.293 1.293a1 1 0 101.414 1.414L10 11.414l1.293 1.293a1 1 0 001.414-1.414L11.414 10l1.293-1.293a1 1 0 00-1.414-1.414L10 8.586 8.707 7.293z" clip-rule="evenodd" />
</svg>

<!-- Dsa -->
<svg id='dsa/logo' fill="currentColor" viewBox="0 0 400 223"><path d="M192 .7c-44 4.2-80.4 17.8-114 42.6-18.9 14-32.1 29.6-48.1 56.6-5 8.6-13 21.3-17.7 28.3C3.4 141.5.4 148.7 1.6 154.5c2.3 12.1 3.5 12.8 23.9 13.6a73 73 0 0125.6 3.8c10 3.2 21.9 9.1 42.9 21a250 250 0 0074 26.5c33.6 5.7 71.3.6 101.5-13.9 5-2.4 16.2-9.1 24.9-15 28.9-19.3 34.3-21.3 62-22.5 22.3-1 29.3-2.1 35.1-5.5 7.5-4.3 9.3-8.6 7.4-17.8-1.3-6-10.5-24.7-19.2-39.2A219.2 219.2 0 00263.5 11 192.2 192.2 0 00192 .7zm28.8 37.4c37 4 70.8 17.6 97.7 39.2a218.2 218.2 0 0133.6 35.3c6.5 9.1 15.9 25.2 15.9 27.2 0 1.1-3.4 1.2-18.7.6-13.6-.5-20-.3-23.3.6-8.7 2.3-18.8 8.2-34.4 19.9-18.5 13.9-27.9 19.6-40.1 24.4-30 11.9-70.6 11.2-110.4-1.9a215.3 215.3 0 01-51-25.3 272.7 272.7 0 00-22.7-13.3 98.6 98.6 0 00-27.4-8.3c0-.3 1.9-4.2 4.1-8.8 21.4-42.5 64.3-75 114-86.1 6.3-1.4 15-2.9 19.4-3.4 11.4-1.3 32-1.4 43.3-.1z"/><path d="M188.5 51.7a123 123 0 00-21.4 3.3c-1 .6.3 2.5 4.8 7.4 7.6 8.2 9.2 11.8 9.8 22.1.4 6.7.1 9-1.8 14C173.7 115 153 126 128.2 126a58 58 0 01-43-16.6l-6.8-6.2-4.3 4.9a72 72 0 00-11.9 17.7l-1 3.1 5.5 1.7c8.4 2.6 18.3 8 34.1 18.2a195 195 0 0061.2 27.1 157 157 0 0047.5 5.8c23.7-.9 37.5-6.5 66-26.8 25.5-18.2 39.5-24.3 58.8-25.6 4.8-.3 8.7-.8 8.7-1 0-3.5-12.5-19.8-22.6-29.4-7-6.6-18.2-15-28-20.9-30.8-18.7-71.8-29-103.9-26.3z"/></svg>

<!-- Dice -->
<svg id='dice/d3' viewBox="0 0 40 40" stroke="currentColor" stroke-width="4" fill="none">
  <path d="M38 32a6 6 0 01-6 6H8a6 6 0 01-6-6V8a6 6 0 016-6h24a6 6 0 016 6v24z" stroke-width="2" stroke-miterlimit="10"/>
  <circle cx="20" cy="20" r="1.5"/>
  <circle cx="13" cy="29" r="1.5"/>Í
  <circle cx="27" cy="11" r="1.5"/>
</svg>

<svg id='dice/d6' viewBox="0 0 40 40" stroke="currentColor" stroke-width="4" fill="none">
  <path d="M38 32a6 6 0 01-6 6H8a6 6 0 01-6-6V8a6 6 0 016-6h24a6 6 0 016 6v24z" stroke-width="2" stroke-miterlimit="10"/>
  <circle cx="13" cy="20" r="1.5"/>
  <circle cx="27" cy="20" r="1.5"/>
  <circle cx="13" cy="29" r="1.5"/>
  <circle cx="27" cy="29" r="1.5"/>
  <circle cx="13" cy="11" r="1.5"/>
  <circle cx="27" cy="11" r="1.5"/>
</svg>

<svg id='dice/d20' viewBox="0 0 40 40" stroke="currentColor" stroke-width="2" fill="none">
  <path stroke-linecap="round" stroke-linejoin="round" d="M20 1L3.6 10.5v19L20 39l16.5-9.5v-19zm0 0v7M9.6 26l-6.1 3.5M30.4 26l6.1 3.5m-33-19L9.6 26M20 8L3.5 10.5M30.4 26l6.1-15.5M20 8l16.5 2.5M9.6 26L20 39m10.4-13L20 39"/>
  <path stroke-linecap="round" stroke-linejoin="round" d="M20 8L9.6 26h20.8z"/>
</svg>

<!-- Unsorted -->

<svg id='archive' fill="none" viewBox="0 0 24 24" stroke="currentColor">
  <path stroke-linecap="round" stroke-linejoin="round" stroke-width="2" d="M5 8h14M5 8a2 2 0 110-4h14a2 2 0 110 4M5 8v10a2 2 0 002 2h10a2 2 0 002-2V8m-9 4h4" />
</svg>

<svg id='check' class="h-6 w-6" fill="none" viewBox="0 0 24 24" stroke="currentColor">
  <path stroke-linecap="round" stroke-linejoin="round" stroke-width="2" d="M5 13l4 4L19 7" />
</svg>

<svg id='cog-solid' viewBox="0 0 20 20" fill="currentColor">
  <path fill-rule="evenodd" d="M11.49 3.17c-.38-1.56-2.6-1.56-2.98 0a1.532 1.532 0 01-2.286.948c-1.372-.836-2.942.734-2.106 2.106.54.886.061 2.042-.947 2.287-1.561.379-1.561 2.6 0 2.978a1.532 1.532 0 01.947 2.287c-.836 1.372.734 2.942 2.106 2.106a1.532 1.532 0 012.287.947c.379 1.561 2.6 1.561 2.978 0a1.533 1.533 0 012.287-.947c1.372.836 2.942-.734 2.106-2.106a1.533 1.533 0 01.947-2.287c1.561-.379 1.561-2.6 0-2.978a1.532 1.532 0 01-.947-2.287c.836-1.372-.734-2.942-2.106-2.106a1.532 1.532 0 01-2.287-.947zM10 13a3 3 0 100-6 3 3 0 000 6z" clip-rule="evenodd" />
</svg>

<svg id="eye-off" fill="none" viewBox="0 0 24 24" stroke="currentColor">
  <path stroke-linecap="round" stroke-linejoin="round" stroke-width="2" d="M13.875 18.825A10.05 10.05 0 0112 19c-4.478 0-8.268-2.943-9.543-7a9.97 9.97 0 011.563-3.029m5.858.908a3 3 0 114.243 4.243M9.878 9.878l4.242 4.242M9.88 9.88l-3.29-3.29m7.532 7.532l3.29 3.29M3 3l3.59 3.59m0 0A9.953 9.953 0 0112 5c4.478 0 8.268 2.943 9.543 7a10.025 10.025 0 01-4.132 5.411m0 0L21 21" />
</svg>

<svg id="lock-closed" fill="none" viewBox="0 0 24 24" stroke="currentColor">
  <path stroke-linecap="round" stroke-linejoin="round" stroke-width="2" d="M12 15v2m-6 4h12a2 2 0 002-2v-6a2 2 0 00-2-2H6a2 2 0 00-2 2v6a2 2 0 002 2zm10-10V7a4 4 0 00-8 0v4h8z" />
</svg>

<svg id='logout-solid' viewBox="0 0 20 20" fill="currentColor">
  <path fill-rule="evenodd" d="M3 3a1 1 0 00-1 1v12a1 1 0 102 0V4a1 1 0 00-1-1zm10.293 9.293a1 1 0 001.414 1.414l3-3a1 1 0 000-1.414l-3-3a1 1 0 10-1.414 1.414L14.586 9H7a1 1 0 100 2h7.586l-1.293 1.293z" clip-rule="evenodd" />
</svg>

<svg id="mail" fill="none" viewBox="0 0 24 24" stroke="currentColor">
  <path stroke-linecap="round" stroke-linejoin="round" stroke-width="2" d="M3 8l7.89 5.26a2 2 0 002.22 0L21 8M5 19h14a2 2 0 002-2V7a2 2 0 00-2-2H5a2 2 0 00-2 2v10a2 2 0 002 2z" />
</svg>

<svg id='save' fill="none" viewBox="0 0 24 24" stroke="currentColor">
  <path stroke-linecap="round" stroke-linejoin="round" stroke-width="2" d="M8 7H5a2 2 0 00-2 2v9a2 2 0 002 2h14a2 2 0 002-2V9a2 2 0 00-2-2h-3m-1 4l-3 3m0 0l-3-3m3 3V4" />
</svg>

<svg id="shield-check" fill="none" viewBox="0 0 24 24" stroke="currentColor">
  <path stroke-linecap="round" stroke-linejoin="round" stroke-width="2" d="M9 12l2 2 4-4m5.618-4.016A11.955 11.955 0 0112 2.944a11.955 11.955 0 01-8.618 3.04A12.02 12.02 0 003 9c0 5.591 3.824 10.29 9 11.622 5.176-1.332 9-6.03 9-11.622 0-1.042-.133-2.052-.382-3.016z" />
</svg>

<svg id="upload" fill="none" viewBox="0 0 24 24">
  <path stroke-linecap="round" stroke-linejoin="round" stroke-width="2" d="M4 16v1a3 3 0 003 3h10a3 3 0 003-3v-1m-4-8l-4-4m0 0L8 8m4-4v12" />
</svg>

<svg id="view-list" viewBox="0 0 20 20" fill="currentColor">
  <path fill-rule="evenodd" d="M3 4a1 1 0 011-1h12a1 1 0 110 2H4a1 1 0 01-1-1zm0 4a1 1 0 011-1h12a1 1 0 110 2H4a1 1 0 01-1-1zm0 4a1 1 0 011-1h12a1 1 0 110 2H4a1 1 0 01-1-1zm0 4a1 1 0 011-1h12a1 1 0 110 2H4a1 1 0 01-1-1z" clip-rule="evenodd" />
</svg>

</svg>
