<svg width="951" height="951" xmlns="http://www.w3.org/2000/svg"><g fill-rule="nonzero" fill="none"><path d="M677 2l3-1h18l3 1 7 1 6 1 4 1 6 2a193 193 0 0140 18l27 16 3 2 8 6 14 10 36 29 8 8c8 6 14 14 21 21 4 3 7 8 10 12 5 7 7 15 10 23l3 16 1 15v32c0 2-2 5-1 7-1 3 1 6-1 8-1 3 0 6-2 9l1 5-2 2v4l-1 5-4 16-1 4-6 18-4 12c-1 3-3 7-2 10l5 14 4 11a71 71 0 003 11l2 6 1 4 1 3 1 4 2 9 1 4 2 10 1 2v5c2 2 0 6 2 9-1 4 2 7 1 11l1 6 1 10c1 5 0 11 2 16v45l-1 3-1 14c-2 3 0 7-1 11l-1 9c-2 2 0 5-1 8l-2 8-2 12-1 5h-1v5l3 3 17 27 7 13 7 16 1 2 9 21v3h1v3l1 4 2 7 1 9v21l-1 6-1 3v2l-4 13c-2 5-3 11-6 16l-3 8c-8 16-18 32-28 47l-6 8-14 19-4 5-10 12-6 7-8 10c-5 3-8 8-12 12-7 7-13 15-22 20-5 4-12 6-18 9h-2v2h-3l-4 1-4 1-8 1-3 1c-5 1-11-1-16 1h-23c-5-2-10 0-15-1l-3-1-8-1-9-1-6-1h-5c-3-3-8-1-11-4l-5-1-11-3-3-1-3-1-28-10-11 5-8 2c-2 2-6 2-8 3h-2c-8 4-17 6-26 8l-4 1-5 2-5-1 1 2h-4l-6 1-3 1h-3l-3 1-21 3c-2 2-6 0-9 1-5 2-9 0-14 1l-7 1h-49c-3 0-5-2-8-1-3-1-7 1-10-2-4 1-7 1-11-1-4 1-9-1-13-1l-6-1-3-1-7-1-5-1c-2 0-4 0-6-2l-10 7c-9 7-19 13-29 18-10 6-20 11-31 15l-22 8-12 3-8 1c-2 2-5 1-8 1-4-1-8 1-12-1l-8-1-9-2-16-5-3-1c-13-5-26-12-38-20l-10-5c-3-3-7-4-9-7l-2-1-2-1-12-9-2-1-7-6-2-1-2-2-19-15-9-7-12-12c-4-2-6-5-9-8-7-8-16-15-21-24l-6-11-4-13-1-4c0-4-2-7-1-11l-2-9v-37l2-8c-1-4 1-9 1-13l1-5c-1-2 0-4 1-6l1-5v-4l1-2v-3l1-2 1-3 1-4 1-1c-1-4 2-7 2-10l3-10 1-3 1-2 1-1v-2l5-14 3-7-2-5-14-43c-1-3-1-6-3-8v-4l-1-4-1-6-2-8-2-12-1-8-1-6c-2-3 0-7-1-10-2-3-1-6-1-9 1-3-1-7-1-10a13386 13386 0 001-57c1-4-1-9 1-13v-9c2-2 1-5 2-7l2-15 1-6 1-3v-5a389 389 0 01-35-64c-2-5-5-10-6-16l-5-16-1-6-1-4v-21l1-5 1-6 7-24 9-20 10-17 5-8 4-7 23-32 32-38 9-9a108 108 0 0146-34l4-1 10-3c3 0 7 1 10-1h45l3 1c4 1 8-1 12 1 7 0 13 2 19 3l2 1h3l5 1 5 1 2 1 4 1 4 1 6 2 7 2 7 2 2 1 6 3 20-8h2v-1l14-5a234 234 0 0013-4l11-3 7-2 13-3 5-1 6-1 6-1 3-1h3l4-1h5l2-1 7-1h11l1-1 13-1 4-1h44l6 1 12 1h10c3 2 6 2 9 2l9 1 8 2 6 1 6 1h4v2h9l2-2 3-2 11-7 11-7 15-8 16-7 4-2 14-5 7-2 2-1 4-1 5-1 7-1z" fill="#242021"/><path d="M644 101c13-8 28-14 43-18 4-1 7 0 11 1a494 494 0 01123 87h-7c-17-2-34 3-50 10a223 223 0 00-56 37c-4 2-6 6-9 9l-12 10-18 19-18 23-17 23-3 6c-7 8-12 18-17 27-1 4-5 8-5 13 6 2 11 6 17 9l28 15-18 8-21 8-28 11-36 14-49 19c-3-3-3-8-4-12l-7-26-3-11-1-2-5-20-4-14-1-2-4-18-12-42-4-18 11 5 19 10 11 5c12-28 25-56 41-82l2-4 12-16 16-22 13-15 10-10c8-8 18-15 27-22l25-15z" fill="#FEFEFE"/><path d="M393 129a354 354 0 01198 10l-9 9-13 15-16 22-12 16-2 4c-16 26-29 54-41 82l-11-5-19-10-11-5 4 18 12 42 4 18 1 2 4 14 5 20 1 2 3 11 7 26c1 4 1 9 4 12l49-19 36-14 28-11 21-8 18-8-28-15c-6-3-11-7-17-9 0-5 4-9 5-13 5-9 10-19 17-27l3-6 17-23 18-23 18-19 12-10c3-3 5-7 9-9l7-6c12 9 21 21 31 32l10 13c8 10 16 20 22 31l10 18 7 14a344 344 0 0116 267c-28-28-61-49-96-68l-26-13-22-10c-2 0-2-2-3-3l3-3c3-8 8-15 12-23l6-12-8 1-128 35-29 7 3 10 10 27 10 26 36 91c4-4 5-9 8-14l17-31 6 2 15 8 6 2 19 13 38 29 15 13 8 8 11 10 16 19c-3 5-7 8-11 11-10 12-23 21-34 31-5 5-11 8-17 12a349 349 0 01-177 62h-37c-30-1-60-6-89-15l-11-4a279 279 0 0034-43c5-4 7-10 11-14l8-16 16-27 6-15 10-20 2-1 1-7c5 1 9 3 13 6l28 14c0-7-3-15-5-22l-16-58-2-6-8-34-5-16-7-29c-5 0-9 3-14 5l-26 10-23 9-7 2-27 11-26 10-22 9-6 2-1 3 43 23-1 6c-6 10-11 22-18 32-12 16-23 33-36 48l-17 19c-7 5-13 11-18 18l-11 9-21-20c-12-14-24-28-34-43l-11-16c-3-8-8-15-12-23l-8-16-9-24v-4l-1 4-3-11c-7-20-12-40-14-61l-3-25v-47l1-11h1v-4l7-43 7-23 2-1c8 8 17 16 27 23l21 16c27 17 54 32 82 45 5 3 11 4 15 8v2l-14 27-5 10c6 0 12-3 18-4l17-4 90-24 21-6 2-1c6 0 11-3 17-4l-12-33-25-63-7-16-14-38c0-1-1-4-3-2l-4 7-8 16-11 20c-5 0-10-3-14-5-22-11-41-25-60-39l-22-19c-15-14-29-29-42-44 6-8 13-14 19-20l20-18 25-20c12-7 22-15 35-21a389 389 0 0185-33z" fill="#F9A332"/><path d="M170 135c7-2 15-2 22-2 8 1 16 0 24 2 15 1 30 4 44 9l33 12 15 5c-13 6-23 14-35 21l-25 20-20 18c-6 6-13 12-19 20-18-24-35-51-39-81v-24z" fill="#9D6B36"/><path d="M98 227c20-33 45-63 72-91v23c4 30 21 57 39 81 13 15 27 30 42 44l22 19c19 14 38 28 60 39 4 2 9 5 14 5l11-20 8-16 4-7c2-2 3 1 3 2l14 38 7 16 25 63 12 33c-6 1-11 4-17 4l-2 1-21 6-90 24-17 4c-6 1-12 4-18 4l5-10 14-27v-2c-4-4-10-5-15-8-28-13-55-28-82-45l-21-16a260 260 0 01-30-26c-9-10-18-21-25-34-14-18-24-39-30-61v-8c3-13 10-24 16-35z" fill="#FEFEFE"/><path d="M764 181c16-7 33-12 50-10 3 1 6 0 8 2a198 198 0 01-12 96l-8 23c-3 6-5 14-10 20 1 3 3 5 3 8l-7-14-10-18c-6-11-14-21-22-31l-10-13c-10-11-19-23-31-32 15-12 31-23 49-31zM137 365l3 3-2 1-7 23-7 43v4c-2-5 0-11 1-16 2-20 7-39 12-58z" fill="#9D6B36"/><path d="M677 456l8-1-6 12c-4 8-9 15-12 23l-3 3c1 1 1 3 3 3l22 10 26 13c35 19 68 40 96 68 10 11 19 22 27 35 13 18 23 38 30 59 2 7-1 14-3 21-8 20-20 37-32 54a482 482 0 01-56 64c1-1 3-2 3-4 2-17-1-34-8-50-8-20-20-39-34-55l-16-19-11-10-8-8-15-13-38-29-19-13-6-2-15-8-6-2-17 31c-3 5-4 10-8 14l-36-91-10-26-10-27-3-10 29-7 128-35zM434 525c5-2 9-5 14-5l7 29 5 16 8 34 2 6 16 58c2 7 5 15 5 22l-28-14c-4-3-8-5-13-6l-1 7-2 1-10 20-6 15-16 27-8 16c-4 4-6 10-11 14l-1 3-3 4a279 279 0 01-59 61c-14 9-28 19-44 26-9 4-19 8-29 10-6 0-12-2-18-5-15-6-30-15-44-24-25-18-49-38-71-60 8 1 16 2 23 0 13-1 26-5 38-11 18-8 34-20 50-33l11-9c5-7 11-13 18-18l17-19c13-15 24-32 36-48 7-10 12-22 18-32l1-6-43-23 1-3 6-2 22-9 26-10 27-11 7-2 23-9 26-10z" fill="#FEFEFE"/><path d="M152 618l8 16c4 8 9 15 12 23l11 16c10 15 22 29 34 43l21 20c-16 13-32 25-50 33-12 6-25 10-38 11-7 2-15 1-23 0-3-14-2-28-1-42a369 369 0 0133-105c-2-5-6-10-7-15zM727 722c4-3 8-6 11-11 14 16 26 35 34 55 7 16 10 33 8 50 0 2-2 3-3 4-10 1-21 2-31 1l-17-2a204 204 0 01-64-18l-17-6c-4-2-8-5-13-5 14-7 28-15 41-25 6-4 12-7 17-12 11-10 24-19 34-31z" fill="#9D6B36"/></g></svg>